<svg width="151" height="151" viewBox="0 0 151 151" fill="none" xmlns="http://www.w3.org/2000/svg">
<path d="M59.9062 23.3438H100.078C105.266 23.3438 109.797 23.8906 113.672 24.9844C117.578 26.0781 120.828 27.6094 123.422 29.5781C126.047 31.5469 128.016 33.9062 129.328 36.6562C130.641 39.4062 131.297 42.4375 131.297 45.75C131.297 49.8438 130.328 53.4844 128.391 56.6719C126.453 59.8281 123.578 62.3438 119.766 64.2188L134.391 93.0469H103.781L92.7188 67.7344H87V93H59.9062V23.3438ZM88.6406 59.25C90.8594 59.25 92.8438 58.9375 94.5938 58.3125C96.3438 57.6875 97.8281 56.8125 99.0469 55.6875C100.266 54.5312 101.203 53.1719 101.859 51.6094C102.516 50.0156 102.844 48.2812 102.844 46.4062C102.844 44.5312 102.516 42.8125 101.859 41.25C101.203 39.6562 100.266 38.2969 99.0469 37.1719C97.8281 36.0156 96.3438 35.125 94.5938 34.5C92.8438 33.875 90.8594 33.5625 88.6406 33.5625H87.0469L87 59.25H88.6406Z" fill="#666666"/>
<path d="M87.0938 58.9037H46.9219C41.7344 58.9037 37.2031 59.4506 33.3281 60.5444C29.4219 61.6381 26.1719 63.1694 23.5781 65.1381C20.9531 67.1069 18.9844 69.4662 17.6719 72.2162C16.3594 74.9662 15.7031 77.9975 15.7031 81.31C15.7031 85.4037 16.6719 89.0444 18.6094 92.2319C20.5469 95.3881 23.4219 97.9037 27.2344 99.7787L12.6094 128.607H43.2188L54.2812 103.294H60V128.56H87.0938V58.9037ZM58.3594 94.81C56.1406 94.81 54.1562 94.4975 52.4062 93.8725C50.6562 93.2475 49.1719 92.3725 47.9531 91.2475C46.7344 90.0912 45.7969 88.7319 45.1406 87.1694C44.4844 85.5756 44.1562 83.8412 44.1562 81.9662C44.1562 80.0912 44.4844 78.3725 45.1406 76.81C45.7969 75.2162 46.7344 73.8569 47.9531 72.7319C49.1719 71.5756 50.6562 70.685 52.4062 70.06C54.1562 69.435 56.1406 69.1225 58.3594 69.1225H59.9531L60 94.81H58.3594Z" fill="#FFA41B"/>
</svg>
